SplineFontDB: 3.0
FontName: Valley
FullName: Valley
FamilyName: Valley
Weight: Regular
Copyright: Created by trashman with FontForge 2.0 (http://fontforge.sf.net)
UComments: "2010-10-4: Created." 
Version: 001.000
ItalicAngle: 0
UnderlinePosition: -100
UnderlineWidth: 50
Ascent: 730
Descent: 270
LayerCount: 3
Layer: 0 0 "Back"  1
Layer: 1 0 "Fore"  0
Layer: 2 0 "backup"  0
NeedsXUIDChange: 1
XUID: [1021 658 797806517 11561335]
OS2Version: 0
OS2_WeightWidthSlopeOnly: 0
OS2_UseTypoMetrics: 1
CreationTime: 1286180940
ModificationTime: 1286230999
OS2TypoAscent: 0
OS2TypoAOffset: 1
OS2TypoDescent: 0
OS2TypoDOffset: 1
OS2TypoLinegap: 0
OS2WinAscent: 0
OS2WinAOffset: 1
OS2WinDescent: 0
OS2WinDOffset: 1
HheadAscent: 0
HheadAOffset: 1
HheadDescent: 0
HheadDOffset: 1
OS2Vendor: 'PfEd'
MarkAttachClasses: 1
DEI: 91125
Encoding: UnicodeBmp
UnicodeInterp: none
NameList: Adobe Glyph List
DisplaySize: -48
AntiAlias: 1
FitToEm: 1
WinInfo: 44 11 5
BeginPrivate: 6
BlueValues 15 [-23 3 456 470]
BlueScale 9 0.0380769
StdHW 4 [37]
StemSnapH 19 [30 31 33 36 37 42]
StdVW 4 [89]
StemSnapV 17 [83 89 92 93 107]
EndPrivate
BeginChars: 65536 63

StartChar: a
Encoding: 97 97 0
Width: 504
VWidth: 0
Flags: W
HStem: -12 42<157.309 259.027 425.624 479.909> 222 30<243.017 328> 236 33<175.032 326.622> 434 36<170.245 287.837>
VStem: 18 107<64.0932 190.614> 54 93<336.531 408.51> 328 92<83.229 227.447 252 392.627>
LayerCount: 3
Fore
SplineSet
328 222 m 1xda
 301 229 273 236 238 236 c 0xba
 167 236 125 190 125 126 c 0
 125 79 160 30 207 30 c 0
 275 30 328 92 328 146 c 2
 328 222 l 1xda
420 262 m 2
 420 82 l 2
 420 47 435 28 460 24 c 0
 479 21 479 24 480 8 c 0
 480 5 481 1 481 -1 c 0
 481 -10 470 -12 459 -12 c 0
 443 -12 408 -8 370 2 c 0
 338 10 335 34 330 67 c 1
 330 67 276 -12 172 -12 c 0
 94 -12 18 44 18 120 c 0
 18 215 115 269 210 269 c 0xba
 256 269 329 252 329 252 c 1
 329 306 l 2
 329 396 286 434 236 434 c 0
 230 434 199 434 176 425 c 0
 156 417 152 406 147 384 c 0
 139 350 127 324 92 324 c 0
 71 324 54 336 54 362 c 0xd6
 54 421 158 470 237 470 c 0
 267 470 294 464 317 457 c 0
 390 436 420 387 420 262 c 2
EndSplineSet
EndChar

StartChar: b
Encoding: 98 98 1
Width: 568
VWidth: 0
Flags: W
HStem: -18 35<259.195 379.92> -10 21G<112.5 169.5> 432 34<279.318 381.162> 669 42<17.0196 112.794>
VStem: 103 73<-10 49.8856> 113 97<532.5 669.987> 440 102<112.249 345.068>
LayerCount: 3
Fore
SplineSet
164 -10 m 2x7a
 120 -10 l 2
 105 -10 103 -10 103 0 c 0x7a
 103 87 113 412 113 638 c 0
 113 652 113 670 97 670 c 0
 68 670 52 669 24 669 c 0
 20 669 17 680 17 689 c 0
 17 701 22 711 31 711 c 0
 44 711 128 705 169 705 c 2
 201 705 l 2
 209 705 211 704 211 699 c 0
 211 696 210 691 210 685 c 2
 196 380 l 1
 196 380 256 466 350 466 c 0
 460 466 542 368 542 240 c 0
 542 61 447 -18 325 -18 c 0xb6
 240 -18 206 52 197 52 c 0
 185 52 179 26 176 8 c 0
 174 -9 175 -10 164 -10 c 2x7a
196 216 m 0
 196 99 230 17 318 17 c 0xb2
 427 17 440 121 440 238 c 0
 440 326 426 432 324 432 c 0
 226 432 196 314 196 216 c 0
EndSplineSet
EndChar

StartChar: c
Encoding: 99 99 2
Width: 468
VWidth: 0
Flags: W
HStem: -18 36<208.113 337.878> 432 34<200.608 312.544>
VStem: 26 104<117.403 322.509>
LayerCount: 3
Fore
SplineSet
413 375 m 0
 413 352 403 331 377 331 c 0
 329 331 333 408 305 423 c 0
 292 430 281 432 265 432 c 0
 163 432 130 338 130 242 c 0
 130 132 162 18 274 18 c 0
 323 18 368 47 394 93 c 0
 398 99 405 131 417 134 c 0
 425 136 439 128 439 119 c 0
 439 110 435 99 430 90 c 0
 390 22 338 -18 258 -18 c 0
 120 -18 26 87 26 221 c 0
 26 366 140 466 262 466 c 0
 317 466 413 438 413 375 c 0
EndSplineSet
EndChar

StartChar: d
Encoding: 100 100 3
Width: 578
VWidth: 0
Flags: W
HStem: -22 37<186.884 296.39 466.792 554.614> 421 35<191.014 298.489> 662 31<295.745 366.456> 664 38<267.029 332.394>
VStem: 28 104<103.249 322.661> 372 94<364.109 659.214> 376 8<-4 69> 380 80<17.6841 69 108.848 330.408 364 607.369>
LayerCount: 3
Fore
SplineSet
384 69 m 1xea
 384 68 316 -22 225 -22 c 0
 112 -22 28 87 28 202 c 0
 28 329 95 456 236 456 c 0
 324 456 379 364 379 364 c 1
 379 364 374 514 372 612 c 0
 371 642 370 660 333 662 c 0xec
 320 663 311 663 295 664 c 0
 277 665 267 665 267 684 c 0
 267 697 272 702 282 702 c 0xdc
 291 702 294 701 302 700 c 0
 335 695 336 693 366 693 c 0
 371 693 427 691 443 691 c 0
 462 691 466 691 466 670 c 0xec
 466 633 460 367 460 187 c 0xe9
 460 144 460 108 461 84 c 0
 463 33 461 14 514 11 c 0
 545 9 555 11 555 -9 c 0
 555 -24 544 -26 529 -26 c 0
 518 -26 507 -25 498 -24 c 0
 458 -18 420 -15 397 -15 c 0
 380 -15 376 -12 376 -4 c 0
 376 -1 382 48 384 69 c 1xea
132 212 m 0
 132 123 147 15 242 15 c 0
 330 15 380 118 380 214 c 0xc9
 380 311 339 421 243 421 c 0
 151 421 132 304 132 212 c 0
EndSplineSet
EndChar

StartChar: e
Encoding: 101 101 4
Width: 464
VWidth: 0
Flags: W
HStem: -23 35<204.368 332.365> 223 30<126.141 357.998> 426 31<192.349 288.361>
VStem: 25 101<114.954 323.119> 358 83<231.5 336.372>
LayerCount: 3
Fore
SplineSet
441 236 m 0
 441 227 440 223 425 223 c 2
 141 223 l 2
 129 223 126 224 126 214 c 0
 126 173 130 12 270 12 c 0
 338 12 385 63 408 90 c 0
 419 103 421 106 430 100 c 0
 435 97 437 93 437 90 c 0
 437 85 433 80 428 73 c 0
 407 40 340 -23 256 -23 c 0
 129 -23 25 79 25 215 c 0
 25 356 120 457 236 457 c 0
 351 457 441 367 441 236 c 0
138 253 m 2
 347 254 l 2
 355 254 358 257 358 266 c 0
 358 320 321 426 238 426 c 0
 161 426 129 321 126 274 c 0
 126 269 124 265 124 262 c 0
 124 256 127 253 138 253 c 2
EndSplineSet
EndChar

StartChar: f
Encoding: 102 102 6
Width: 365
VWidth: 0
Flags: HWO
HStem: -6 37<17.0044 125.086 225.966 324.977> 3 31<43.8765 125.72 225.966 302.031> 404 37<25.0051 129 218 348.997> 687 36<242.269 294.321>
VStem: 129 89<36.8651 405 440 636.739> 303 83<596.177 682.989>
LayerCount: 3
Fore
SplineSet
174 3 m 0x7c
 124 3 61 -6 43 -6 c 0
 23 -6 17 -3 17 12 c 0
 17 24 18 30 35 31 c 2xbc
 102 34 l 2
 124 35 129 46 129 80 c 2
 129 405 l 1
 101 405 68 404 42 404 c 0
 32 404 25 407 25 423 c 0
 25 439 31 441 41 441 c 0
 67 441 97 440 129 440 c 9
 129 543 l 2
 129 635 186 723 275 723 c 0
 325 723 386 687 386 638 c 0
 386 609 363 587 337 587 c 0
 317 587 303 604 303 624 c 0
 303 650 298 687 267 687 c 0
 218 687 218 559 218 513 c 2
 218 440 l 1
 322 440 l 2
 345 440 349 438 349 422 c 0
 349 407 346 404 320 404 c 0
 292 404 276 404 218 405 c 1
 218 80 l 2
 218 27 259 30 303 29 c 0
 317 29 325 26 325 14 c 0
 325 -4 319 -8 305 -8 c 0
 241 -8 219 3 174 3 c 0x7c
EndSplineSet
EndChar

StartChar: g
Encoding: 103 103 7
Width: 524
VWidth: 0
Flags: W
HStem: -238 27<153.211 321.895> -10.9994 77.9994<141.669 395.209> 131 23<195.457 280.797> 409 38<416.281 486> 432 27<195.44 284.631>
VStem: 25 63<-168.588 -65.6761> 28 33<56 141.588> 67 85<222.663 370.167> 332 84<209.989 379.902> 439 46<-144.55 -46.2987> 473 61<361.304 408.405>
LayerCount: 3
Fore
SplineSet
28 82 m 0xf280
 28 133 54 159 77 172 c 0
 97 183 116 186 116 186 c 1
 116 186 67 232 67 298 c 0
 67 383 148 459 259 459 c 0xeb80
 310 459 353 422 373 402 c 0
 383 392 378 392 392 405 c 0
 406 418 426 447 470 447 c 0
 502 447 534 429 534 399 c 0
 534 380 520 358 499 358 c 0
 485 358 478 367 473 380 c 0
 468 394 463 409 449 409 c 0
 433 409 418 396 406 384 c 0
 398 376 396 373 396 370 c 0
 396 368 409 342 412 326 c 0
 415 313 416 298 416 286 c 0
 416 204 346 131 250 131 c 0
 192 131 147 154 131 169 c 1
 131 169 115 168 99 161 c 0
 81 153 61 137 61 116 c 0xf3a0
 61 77 101 72 138 69 c 0
 165 67 195 67 225 67 c 2
 232 67 l 2
 262 67 370 67 419 45 c 0
 458 28 485 -9 485 -64 c 0
 485 -201 348 -238 234 -238 c 0
 123 -238 25 -198 25 -114 c 0xf4c0
 25 -71 77 -36 106 -21 c 0
 115 -17 119 -15 119 -13 c 0
 119 -11 112 -9 101 -5 c 0
 72 5 28 30 28 82 c 0xf280
145 -30 m 0
 109 -57 88 -72 88 -112 c 0
 88 -178 154 -211 220 -211 c 0
 316 -211 439 -178 439 -93 c 0xe4c0
 439 -11.9529411765 308.371211073 -10.9994463668 223.083904743 -10.9994463668 c 0
 221.028788927 -10.9994463668 219 -11 217 -11 c 0
 191 -11 170 -11 145 -30 c 0
242 432 m 0xe980
 170 432 152 362 152 296 c 0
 152 224 166 154 236 154 c 0
 313 154 332 226 332 298 c 0
 332 358 310 432 242 432 c 0xe980
EndSplineSet
EndChar

StartChar: h
Encoding: 104 104 8
Width: 176
VWidth: 0
Flags: W
HStem: 185 88<50.4399 125.56>
VStem: 44 88<191.44 266.56>
LayerCount: 3
Fore
SplineSet
44 229 m 4
 44 253 64 273 88 273 c 4
 112 273 132 253 132 229 c 4
 132 205 112 185 88 185 c 4
 64 185 44 205 44 229 c 4
EndSplineSet
EndChar

StartChar: i
Encoding: 105 105 9
Width: 176
VWidth: 0
Flags: W
HStem: 185 88<50.4399 125.56>
VStem: 44 88<191.44 266.56>
LayerCount: 3
Fore
SplineSet
44 229 m 4
 44 253 64 273 88 273 c 4
 112 273 132 253 132 229 c 4
 132 205 112 185 88 185 c 4
 64 185 44 205 44 229 c 4
EndSplineSet
EndChar

StartChar: j
Encoding: 106 106 10
Width: 176
VWidth: 0
Flags: W
HStem: 185 88<50.4399 125.56>
VStem: 44 88<191.44 266.56>
LayerCount: 3
Fore
SplineSet
44 229 m 4
 44 253 64 273 88 273 c 4
 112 273 132 253 132 229 c 4
 132 205 112 185 88 185 c 4
 64 185 44 205 44 229 c 4
EndSplineSet
EndChar

StartChar: k
Encoding: 107 107 11
Width: 176
VWidth: 0
Flags: W
HStem: 185 88<50.4399 125.56>
VStem: 44 88<191.44 266.56>
LayerCount: 3
Fore
SplineSet
44 229 m 4
 44 253 64 273 88 273 c 4
 112 273 132 253 132 229 c 4
 132 205 112 185 88 185 c 4
 64 185 44 205 44 229 c 4
EndSplineSet
EndChar

StartChar: l
Encoding: 108 108 12
Width: 176
VWidth: 0
Flags: W
HStem: 185 88<50.4399 125.56>
VStem: 44 88<191.44 266.56>
LayerCount: 3
Fore
SplineSet
44 229 m 4
 44 253 64 273 88 273 c 4
 112 273 132 253 132 229 c 4
 132 205 112 185 88 185 c 4
 64 185 44 205 44 229 c 4
EndSplineSet
EndChar

StartChar: m
Encoding: 109 109 13
Width: 176
VWidth: 0
Flags: W
HStem: 185 88<50.4399 125.56>
VStem: 44 88<191.44 266.56>
LayerCount: 3
Fore
SplineSet
44 229 m 4
 44 253 64 273 88 273 c 4
 112 273 132 253 132 229 c 4
 132 205 112 185 88 185 c 4
 64 185 44 205 44 229 c 4
EndSplineSet
EndChar

StartChar: n
Encoding: 110 110 14
Width: 176
VWidth: 0
Flags: W
HStem: 185 88<50.4399 125.56>
VStem: 44 88<191.44 266.56>
LayerCount: 3
Fore
SplineSet
44 229 m 4
 44 253 64 273 88 273 c 4
 112 273 132 253 132 229 c 4
 132 205 112 185 88 185 c 4
 64 185 44 205 44 229 c 4
EndSplineSet
EndChar

StartChar: o
Encoding: 111 111 15
Width: 176
VWidth: 0
Flags: W
HStem: 185 88<50.4399 125.56>
VStem: 44 88<191.44 266.56>
LayerCount: 3
Fore
SplineSet
44 229 m 4
 44 253 64 273 88 273 c 4
 112 273 132 253 132 229 c 4
 132 205 112 185 88 185 c 4
 64 185 44 205 44 229 c 4
EndSplineSet
EndChar

StartChar: p
Encoding: 112 112 16
Width: 176
VWidth: 0
Flags: W
HStem: 185 88<50.4399 125.56>
VStem: 44 88<191.44 266.56>
LayerCount: 3
Fore
SplineSet
44 229 m 4
 44 253 64 273 88 273 c 4
 112 273 132 253 132 229 c 4
 132 205 112 185 88 185 c 4
 64 185 44 205 44 229 c 4
EndSplineSet
EndChar

StartChar: q
Encoding: 113 113 17
Width: 176
VWidth: 0
Flags: W
HStem: 185 88<50.4399 125.56>
VStem: 44 88<191.44 266.56>
LayerCount: 3
Fore
SplineSet
44 229 m 4
 44 253 64 273 88 273 c 4
 112 273 132 253 132 229 c 4
 132 205 112 185 88 185 c 4
 64 185 44 205 44 229 c 4
EndSplineSet
EndChar

StartChar: r
Encoding: 114 114 18
Width: 176
VWidth: 0
Flags: W
HStem: 185 88<50.4399 125.56>
VStem: 44 88<191.44 266.56>
LayerCount: 3
Fore
SplineSet
44 229 m 4
 44 253 64 273 88 273 c 4
 112 273 132 253 132 229 c 4
 132 205 112 185 88 185 c 4
 64 185 44 205 44 229 c 4
EndSplineSet
EndChar

StartChar: s
Encoding: 115 115 19
Width: 176
VWidth: 0
Flags: W
HStem: 185 88<50.4399 125.56>
VStem: 44 88<191.44 266.56>
LayerCount: 3
Fore
SplineSet
44 229 m 4
 44 253 64 273 88 273 c 4
 112 273 132 253 132 229 c 4
 132 205 112 185 88 185 c 4
 64 185 44 205 44 229 c 4
EndSplineSet
EndChar

StartChar: t
Encoding: 116 116 20
Width: 176
VWidth: 0
Flags: W
HStem: 185 88<50.4399 125.56>
VStem: 44 88<191.44 266.56>
LayerCount: 3
Fore
SplineSet
44 229 m 4
 44 253 64 273 88 273 c 4
 112 273 132 253 132 229 c 4
 132 205 112 185 88 185 c 4
 64 185 44 205 44 229 c 4
EndSplineSet
EndChar

StartChar: u
Encoding: 117 117 21
Width: 176
VWidth: 0
Flags: W
HStem: 185 88<50.4399 125.56>
VStem: 44 88<191.44 266.56>
LayerCount: 3
Fore
SplineSet
44 229 m 4
 44 253 64 273 88 273 c 4
 112 273 132 253 132 229 c 4
 132 205 112 185 88 185 c 4
 64 185 44 205 44 229 c 4
EndSplineSet
EndChar

StartChar: v
Encoding: 118 118 22
Width: 176
VWidth: 0
Flags: W
HStem: 185 88<50.4399 125.56>
VStem: 44 88<191.44 266.56>
LayerCount: 3
Fore
SplineSet
44 229 m 4
 44 253 64 273 88 273 c 4
 112 273 132 253 132 229 c 4
 132 205 112 185 88 185 c 4
 64 185 44 205 44 229 c 4
EndSplineSet
EndChar

StartChar: w
Encoding: 119 119 23
Width: 176
VWidth: 0
Flags: W
HStem: 185 88<50.4399 125.56>
VStem: 44 88<191.44 266.56>
LayerCount: 3
Fore
SplineSet
44 229 m 4
 44 253 64 273 88 273 c 4
 112 273 132 253 132 229 c 4
 132 205 112 185 88 185 c 4
 64 185 44 205 44 229 c 4
EndSplineSet
EndChar

StartChar: x
Encoding: 120 120 24
Width: 176
VWidth: 0
Flags: W
HStem: 185 88<50.4399 125.56>
VStem: 44 88<191.44 266.56>
LayerCount: 3
Fore
SplineSet
44 229 m 4
 44 253 64 273 88 273 c 4
 112 273 132 253 132 229 c 4
 132 205 112 185 88 185 c 4
 64 185 44 205 44 229 c 4
EndSplineSet
EndChar

StartChar: y
Encoding: 121 121 25
Width: 176
VWidth: 0
Flags: W
HStem: 185 88<50.4399 125.56>
VStem: 44 88<191.44 266.56>
LayerCount: 3
Fore
SplineSet
44 229 m 4
 44 253 64 273 88 273 c 4
 112 273 132 253 132 229 c 4
 132 205 112 185 88 185 c 4
 64 185 44 205 44 229 c 4
EndSplineSet
EndChar

StartChar: z
Encoding: 122 122 26
Width: 176
VWidth: 0
Flags: W
HStem: 185 88<50.4399 125.56>
VStem: 44 88<191.44 266.56>
LayerCount: 3
Fore
SplineSet
44 229 m 4
 44 253 64 273 88 273 c 4
 112 273 132 253 132 229 c 4
 132 205 112 185 88 185 c 4
 64 185 44 205 44 229 c 4
EndSplineSet
EndChar

StartChar: zero
Encoding: 48 48 53
Width: 176
VWidth: 0
Flags: W
HStem: 185 88<50.4399 125.56>
VStem: 44 88<191.44 266.56>
LayerCount: 3
Fore
SplineSet
44 229 m 0
 44 253 64 273 88 273 c 0
 112 273 132 253 132 229 c 0
 132 205 112 185 88 185 c 0
 64 185 44 205 44 229 c 0
EndSplineSet
EndChar

StartChar: one
Encoding: 49 49 54
Width: 176
VWidth: 0
Flags: W
HStem: 185 88<50.4399 125.56>
VStem: 44 88<191.44 266.56>
LayerCount: 3
Fore
SplineSet
44 229 m 0
 44 253 64 273 88 273 c 0
 112 273 132 253 132 229 c 0
 132 205 112 185 88 185 c 0
 64 185 44 205 44 229 c 0
EndSplineSet
EndChar

StartChar: two
Encoding: 50 50 55
Width: 176
VWidth: 0
Flags: W
HStem: 185 88<50.4399 125.56>
VStem: 44 88<191.44 266.56>
LayerCount: 3
Fore
SplineSet
44 229 m 0
 44 253 64 273 88 273 c 0
 112 273 132 253 132 229 c 0
 132 205 112 185 88 185 c 0
 64 185 44 205 44 229 c 0
EndSplineSet
EndChar

StartChar: three
Encoding: 51 51 56
Width: 176
VWidth: 0
Flags: W
HStem: 185 88<50.4399 125.56>
VStem: 44 88<191.44 266.56>
LayerCount: 3
Fore
SplineSet
44 229 m 0
 44 253 64 273 88 273 c 0
 112 273 132 253 132 229 c 0
 132 205 112 185 88 185 c 0
 64 185 44 205 44 229 c 0
EndSplineSet
EndChar

StartChar: four
Encoding: 52 52 57
Width: 176
VWidth: 0
Flags: W
HStem: 185 88<50.4399 125.56>
VStem: 44 88<191.44 266.56>
LayerCount: 3
Fore
SplineSet
44 229 m 0
 44 253 64 273 88 273 c 0
 112 273 132 253 132 229 c 0
 132 205 112 185 88 185 c 0
 64 185 44 205 44 229 c 0
EndSplineSet
EndChar

StartChar: five
Encoding: 53 53 58
Width: 176
VWidth: 0
Flags: W
HStem: 185 88<50.4399 125.56>
VStem: 44 88<191.44 266.56>
LayerCount: 3
Fore
SplineSet
44 229 m 0
 44 253 64 273 88 273 c 0
 112 273 132 253 132 229 c 0
 132 205 112 185 88 185 c 0
 64 185 44 205 44 229 c 0
EndSplineSet
EndChar

StartChar: six
Encoding: 54 54 59
Width: 176
VWidth: 0
Flags: W
HStem: 185 88<50.4399 125.56>
VStem: 44 88<191.44 266.56>
LayerCount: 3
Fore
SplineSet
44 229 m 0
 44 253 64 273 88 273 c 0
 112 273 132 253 132 229 c 0
 132 205 112 185 88 185 c 0
 64 185 44 205 44 229 c 0
EndSplineSet
EndChar

StartChar: seven
Encoding: 55 55 60
Width: 176
VWidth: 0
Flags: W
HStem: 185 88<50.4399 125.56>
VStem: 44 88<191.44 266.56>
LayerCount: 3
Fore
SplineSet
44 229 m 0
 44 253 64 273 88 273 c 0
 112 273 132 253 132 229 c 0
 132 205 112 185 88 185 c 0
 64 185 44 205 44 229 c 0
EndSplineSet
EndChar

StartChar: eight
Encoding: 56 56 61
Width: 176
VWidth: 0
Flags: W
HStem: 185 88<50.4399 125.56>
VStem: 44 88<191.44 266.56>
LayerCount: 3
Fore
SplineSet
44 229 m 0
 44 253 64 273 88 273 c 0
 112 273 132 253 132 229 c 0
 132 205 112 185 88 185 c 0
 64 185 44 205 44 229 c 0
EndSplineSet
EndChar

StartChar: nine
Encoding: 57 57 62
Width: 176
VWidth: 0
Flags: W
HStem: 185 88<50.4399 125.56>
VStem: 44 88<191.44 266.56>
LayerCount: 3
Fore
SplineSet
44 229 m 0
 44 253 64 273 88 273 c 0
 112 273 132 253 132 229 c 0
 132 205 112 185 88 185 c 0
 64 185 44 205 44 229 c 0
EndSplineSet
EndChar
